# AST/ASF file generated using VICON BodyLanguage
# -----------------------------------------------
:version 1.10
:name VICON
:units
  mass 1.0
  length 0.45
  angle deg
:documentation
   .ast/.asf automatically generated from VICON data using
   VICON BodyBuilder and BodyLanguage model FoxedUp or BRILLIANT.MOD
:root
   order TX TY TZ RX RY RZ
   axis XYZ
   position 0 0 0  
   orientation 0 0 0 
:bonedata
  begin
     id 1 
     name lhipjoint
     direction 0.635376 -0.686425 0.353719 
     length 2.47244 
     axis 0 0 0  XYZ
  end
  begin
     id 2 
     name lfemur
     direction 0.34202 -0.939693 0  
     length 7.25268  
     axis 0 0 20  XYZ
    dof rx ry rz
    limits (-160.0 20.0)
           (-70.0 70.0)
           (-60.0 70.0)
  end
  begin
     id 3 
     name ltibia
     direction 0.34202 -0.939693 0   
     length 7.6767   
     axis 0 0 20   XYZ
    dof rx
    limits (-10.0 170.0)
  end
  begin
     id 4 
     name lfoot
     direction 0.0803374 -0.220725 0.972022   
     length 2.22945   
     axis -90 7.62852e-016 20   XYZ
    dof rx rz
    limits (-45.0 90.0)
           (-70.0 20.0)
  end
  begin
     id 5 
     name ltoes
     direction 1.53579e-011 -4.21994e-011 1   
     length 1.11848   
     axis -90 7.62852e-016 20   XYZ
    dof rx
    limits (-90.0 20.0)
  end
  begin
     id 6 
     name rhipjoint
     direction -0.664428 -0.664335 0.342336   
     length 2.55466  
     axis 0 0 0  XYZ 
  end
  begin
     id 7 
     name rfemur
     direction -0.34202 -0.939693 0   
     length 6.83172   
     axis 0 0 -20   XYZ
    dof rx ry rz
    limits (-160.0 20.0)
           (-70.0 70.0)
           (-70.0 60.0)
  end
  begin
     id 8 
     name rtibia
     direction -0.34202 -0.939693 0   
     length 7.62692   
     axis 0 0 -20   XYZ
    dof rx
    limits (-10.0 170.0)
 end
 begin
     id 9 
     name rfoot
     direction -0.0949276 -0.260811 0.960711   
     length 2.19684  
     axis -90 -7.62852e-016 -20   XYZ
    dof rx rz
    limits (-45.0 90.0)
           (-20.0 70.0)
  end
  begin
     id 10 
     name rtoes
     direction -1.53543e-011 -4.2183e-011 1   
     length 1.09848   
     axis -90 -7.62852e-016 -20   XYZ
    dof rx
    limits (-90.0 20.0)
  end
  begin
     id 11 
     name lowerback
     direction 0.0118782 0.999815 -0.0151555   
     length 2.15772   
     axis 0 0 0   XYZ
    dof rx ry rz
    limits (-20.0 45.0)
           (-30.0 30.0)
           (-30.0 30.0)
  end
  begin
     id 12 
     name upperback
     direction 0.00130825 0.999065 0.0432113   
     length 2.14863   
     axis 0 0 0   XYZ
    dof rx ry rz
    limits (-20.0 45.0)
           (-30.0 30.0)
           (-30.0 30.0)
  end
  begin
     id 13 
     name thorax
     direction -0.00347005 0.998773 0.0494011   
     length 2.14936   
     axis 0 0 0   XYZ
    dof rx ry rz
    limits (-20.0 45.0)
           (-30.0 30.0)
           (-30.0 30.0)
  end
  begin
     id 14 
     name lowerneck
     direction -0.0262159 0.99424 0.103921   
     length 1.69373   
     axis 0 0 0   XYZ
    dof rx ry rz
    limits (-20.0 45.0)
           (-30.0 30.0)
           (-30.0 30.0)
  end
  begin
     id 15 
     name upperneck
     direction 0.0353511 0.977394 -0.20845   
     length 1.70857   
     axis 0 0 0   XYZ
    dof rx ry rz
    limits (-20.0 45.0)
           (-30.0 30.0)
           (-30.0 30.0)
  end
  begin
     id 16
     name head
     direction 0.0139214 0.996594 -0.0812836  
     length 1.72777  
     axis 0 0 0   XYZ
    dof rx ry rz
    limits (-20.0 45.0)
           (-30.0 30.0)
           (-30.0 30.0)
  end
  begin
     id 17 
     name lclavicle
     direction 0.841247 0.537205 -0.0609508  
     length 3.55371  
     axis 0 0 0   XYZ
    dof ry rz
    limits (-20.0 10.0)
           (0.0 20.0)
  end
  begin
     id 18 
     name lhumerus
     direction 1 -4.48964e-011 1.60116e-018   
     length 4.91377   
     axis -180 -30 -90   XYZ
    dof rx ry rz
    limits (-60.0 90.0)
           (-90.0 90.0)
           (-90.0 90.0)
  end
  begin
     id 19
     name lradius
     direction 1 -4.48989e-011 -8.93847e-027   
     length 3.00291   
     axis -180 -30 -90   XYZ
    dof rx
    limits (-10.0 170.0)
  end
  begin
     id 20
     name lwrist
     direction 1 -4.48932e-011 -7.31504e-027   
     length 1.50145   
     axis 5.74121e-015 90 90   XYZ
    dof ry
    limits (-180.0 0.0)
 end
  begin
     id 21 
     name lhand
     direction 1 -4.48971e-011 -1.46301e-026   
     length 0.450922   
     axis 9.33524e-015 90 90   XYZ
    dof rx rz
    limits (-90.0 90.0)
           (-45.0 45.0)
  end
  begin
     id 22 
     name lfingers
     direction 1 -4.49039e-011 -2.92602e-026   
     length 0.363545   
     axis 1.86705e-014 90 90   XYZ
    dof rx
    limits (0.0 90.0)
  end
  begin
     id 23
     name lthumb
     direction 0.707107 -6.34941e-011 0.707107   
     length 0.52198   
     axis -90 45 2.85299e-015   XYZ
    dof rx rz
    limits (-45.0 45.0)
           (-45.0 45.0)
  end
  begin
     id 24 
     name rclavicle
     direction -0.825079 0.56158 -0.0622297   
     length 3.39909  
     axis 0 0 0   XYZ 
    dof ry rz
    limits (-10.0 20.0)
           (-20.0 0.0)
  end
  begin
     id 25 
     name rhumerus
     direction -1 -4.48965e-011 1.61691e-027  
     length 4.86725   
     axis -180 30 90   XYZ
    dof rx ry rz
    limits (-90.0 60.0)
           (-90.0 90.0)
           (-90.0 90.0)
  end
  begin
     id 26 
     name rradius
     direction -1 -4.48964e-011 -2.25776e-027   
     length 3.17144   
     axis -180 30 90   XYZ
    dof rx
    limits (-10.0 170.0)
  end
  begin
     id 27 
     name rwrist
     direction -1 -4.48961e-011 -7.31504e-027   
     length 1.58572   
     axis 5.74121e-015 -90 -90   XYZ
    dof ry
    limits (-180.0 0.0)
  end
  begin
     id 28
     name rhand
     direction -1 -4.49013e-011 -1.46301e-026   
     length 0.419368   
     axis 9.33524e-015 -90 -90   XYZ
    dof rx rz
    limits (-90.0 90.0)
           (-45.0 45.0)
  end
  begin
     id 29
     name rfingers
     direction -1 -4.489e-011 -2.92602e-026   
     length 0.338105   
     axis 1.86705e-014 -90 -90   XYZ
    dof rx
    limits (0.0 90.0)
  end
  begin
     id 30
     name rthumb
     direction -0.707107 -6.35022e-011 0.707107   
     length 0.485453   
     axis -90 -45 -2.85299e-015   XYZ
    dof rx rz
    limits (-45.0 45.0)
           (-45.0 45.0)
  end
:hierarchy
  begin
    root lhipjoint rhipjoint lowerback
    lhipjoint lfemur
    lfemur ltibia
    ltibia lfoot
    lfoot ltoes
    rhipjoint rfemur
    rfemur rtibia
    rtibia rfoot
    rfoot rtoes
    lowerback upperback
    upperback thorax
    thorax lowerneck lclavicle rclavicle
    lowerneck upperneck
    upperneck head
    lclavicle lhumerus
    lhumerus lradius
    lradius lwrist
    lwrist lhand lthumb
    lhand lfingers
    rclavicle rhumerus
    rhumerus rradius
    rradius rwrist
    rwrist rhand rthumb
    rhand rfingers
  end

#!OML:ASF H:\Swim 2\Project 1\Capture day 1\Session 1\male.ASF
:FULLY-SPECIFIED
:DEGREES
385
root 7.71687 9.89768 13.2648 107.687 -3.20026 3.34948
lowerback -13.7595 1.3643 -4.50261
upperback -10.5263 2.434 0.16372
thorax -3.6395 1.56958 2.93762
lowerneck -17.2701 -4.98678 -4.04447
upperneck 14.1248 -5.80577 0.443272
head 7.29948 -2.94415 0.145021
rclavicle 3.18055e-015 -3.97569e-016
rhumerus 30.0546 -25.844 -9.19503
rradius 53.0649
rwrist -23.304
rhand -22.9582 -16.9084
rfingers 7.12502
rthumb 3.48343 -46.8597
lclavicle 3.18055e-015 -3.97569e-016
lhumerus 38.1506 17.6143 24.9301
lradius 42.6413
lwrist 30.1696
lhand -38.0122 -4.37484
lfingers 7.12502
lthumb -11.051 25.3142
rfemur -35.324 8.00327 17.8072
rtibia 27.2615
rfoot 26.7258 -11.4296
rtoes 22.4303
lfemur -38.1364 -13.7085 -16.8653
ltibia 50.4426
lfoot 14.5929 5.76795
ltoes 13.8159
386
root 7.72 9.87594 13.2737 107.957 -3.2905 3.36485
lowerback -14.0218 1.31138 -4.58957
upperback -10.6682 2.38295 0.150796
thorax -3.65471 1.55212 2.97391
lowerneck -16.8847 -4.8836 -3.87782
upperneck 13.0165 -5.73846 0.511701
head 6.86731 -2.90052 0.172687
rclavicle 2.38542e-014 -5.76476e-015
rhumerus 28.9479 -25.3261 -10.1351
rradius 54.8136
rwrist -27.4083
rhand -21.9307 -18.0492
rfingers 7.12502
rthumb 4.47568 -47.9819
lclavicle 2.38542e-014 -5.76476e-015
lhumerus 36.1266 16.1175 24.4203
lradius 44.9916
lwrist 32.8537
lhand -37.0544 -3.99279
lfingers 7.12502
lthumb -10.1271 25.7435
rfemur -35.65 8.67048 17.1753
rtibia 25.3314
rfoot 25.9707 -11.9925
rtoes 22.6804
lfemur -38.434 -14.2633 -16.487
ltibia 47.7768
lfoot 14.8304 6.02153
ltoes 13.8291
387
root 7.72213 9.85457 13.2802 108.07 -3.35235 3.29557
lowerback -14.1317 1.28755 -4.65344
upperback -10.7599 2.36184 0.149384
thorax -3.69822 1.54832 3.00776
lowerneck -16.7255 -4.78578 -3.73718
upperneck 12.2173 -5.65522 0.551155
head 6.5766 -2.85244 0.186648
rclavicle -2.54444e-014 -2.18663e-015
rhumerus 27.907 -24.7259 -11.0724
rradius 56.6531
rwrist -31.4929
rhand -21.0872 -18.9483
rfingers 7.12502
rthumb 5.29018 -48.8623
lclavicle -2.54444e-014 -2.18663e-015
lhumerus 34.2544 14.6635 24.134
lradius 47.4973
lwrist 35.4437
lhand -36.1447 -3.75659
lfingers 7.12502
lthumb -9.24942 26.0205
rfemur -35.8747 9.30165 16.613
rtibia 23.564
rfoot 25.2022 -12.5279
rtoes 22.9939
lfemur -38.5633 -14.704 -16.1648
ltibia 45.1739
lfoot 14.9834 6.33338
ltoes 13.9996
388
root 7.72445 9.83386 13.2845 108.144 -3.41357 3.2202
lowerback -14.2051 1.25811 -4.68515
upperback -10.8278 2.32706 0.144514
thorax -3.73205 1.5342 3.01791
lowerneck -16.7322 -4.68935 -3.5866
upperneck 11.5935 -5.56394 0.561746
head 6.37041 -2.80198 0.184081
rclavicle -9.54166e-015 -1.41137e-014
rhumerus 26.935 -24.0203 -11.9547
rradius 58.5915
rwrist -35.3963
rhand -20.4019 -19.5912
rfingers 7.12502
rthumb 5.95182 -49.4876
lclavicle -9.54166e-015 -1.41137e-014
lhumerus 32.4769 13.2484 23.9691
lradius 50.2175
lwrist 37.9445
lhand -35.3246 -3.62527
lfingers 7.12502
lthumb -8.45807 26.1854
rfemur -36.1311 9.81815 16.1043
rtibia 21.9721
rfoot 24.447 -13.0696
rtoes 23.2907
lfemur -38.6885 -15.0712 -15.8849
ltibia 42.666
lfoot 15.052 6.66036
ltoes 14.2397
389
root 7.72673 9.81431 13.2866 108.16 -3.47548 3.15025
lowerback -14.2147 1.21813 -4.67789
upperback -10.8684 2.26928 0.132295
thorax -3.76516 1.50425 2.99465
lowerneck -16.9474 -4.59408 -3.41751
upperneck 11.1758 -5.46755 0.553905
head 6.2644 -2.74905 0.165674
rclavicle -3.18055e-015 -4.57205e-015
rhumerus 26.0275 -23.1926 -12.7605
rradius 60.658
rwrist -38.9662
rhand -19.8322 -20.029
rfingers 7.12502
rthumb 6.50182 -49.9092
lclavicle -3.18055e-015 -4.57205e-015
lhumerus 30.7402 11.8478 23.8383
lradius 53.2045
lwrist 40.3497
lhand -34.6461 -3.54229
lfingers 7.12502
lthumb -7.80321 26.2937
rfemur -36.3992 10.2164 15.6621
rtibia 20.5629
rfoot 23.7128 -13.6438
rtoes 23.5611
lfemur -38.8001 -15.3589 -15.6633
ltibia 40.2831
lfoot 15.005 6.95021
ltoes 14.5664
390
root 7.72881 9.79616 13.2866 108.127 -3.5375 3.08887
lowerback -14.1667 1.17058 -4.65402
upperback -10.8908 2.19583 0.121129
thorax -3.80686 1.46457 2.96016
lowerneck -17.1569 -4.48969 -3.31387
upperneck 10.7474 -5.35424 0.615417
head 6.15784 -2.68514 0.181694
rclavicle 3.18055e-014 1.17283e-014
rhumerus 25.154 -22.2175 -13.5498
rradius 62.8962
rwrist -41.9583
rhand -19.4023 -20.2655
rfingers 7.12502
rthumb 6.91679 -50.1325
lclavicle 3.18055e-014 1.17283e-014
lhumerus 29.02 10.4091 23.6776
lradius 56.487
lwrist 42.6937
lhand -34.1276 -3.40509
lfingers 7.12502
lthumb -7.30273 26.4489
rfemur -36.6915 10.497 15.2927
rtibia 19.3509
rfoot 22.9562 -14.2646
rtoes 23.7419
lfemur -38.9139 -15.5563 -15.5053
ltibia 38.0527
lfoot 14.8159 7.16832
ltoes 14.9056
391
root 7.73063 9.7795 13.2843 108.053 -3.59977 3.04078
lowerback -14.0735 1.12321 -4.64492
upperback -10.9061 2.12215 0.11856
thorax -3.866 1.42615 2.94174
lowerneck -17.3387 -4.39164 -3.25223
upperneck 10.3089 -5.24436 0.705222
head 6.04563 -2.62249 0.213606
rclavicle -9.54166e-015 2.78299e-015
rhumerus 24.2606 -21.0728 -14.3784
rradius 65.3394
rwrist -44.2255
rhand -19.178 -20.2605
rfingers 7.12502
rthumb 7.13329 -50.1202
lclavicle -9.54166e-015 2.78299e-015
lhumerus 27.334 8.88154 23.5134
lradius 60.0535
lwrist 44.9552
lhand -33.7696 -3.15827
lfingers 7.12502
lthumb -6.95719 26.7074
rfemur -37.0071 10.692 14.9825
rtibia 18.3243
rfoot 22.14 -14.9577
rtoes 23.8602
lfemur -39.0471 -15.6776 -15.4059
ltibia 36.0005
lfoot 14.478 7.3125
ltoes 15.2255
